# xmcd
# 
# Track frame offsets:
#     187
#     21997
#     37040
#     57147
#     77432
#     101685
#     121550
#     142865
#     147752
#     168007
#     188742
#     207552
#     225520
# 
# Disc length: 3220
# 
# Revision: 1
# Processed by: cddbd v1.5.2PL0 Copyright (c) Steve Scherf et al.
# Submitted via: BonkEnc v1.0.8
# 
DISCID=9f0c920d
DTITLE=Kreator - Endorama
DYEAR=1999
DGENRE=Heavy Metal
TTITLE0=Golden age
TTITLE1=Endorama
TTITLE2=Shadowland
TTITLE3=Chosen few
TTITLE4=Everlasting flame
TTITLE5=Passage to babylon
TTITLE6=Future ring
TTITLE7=Entry
TTITLE8=Soul eraser
TTITLE9=Willing spirit
TTITLE10=Pandemonium
TTITLE11=Tyranny
TTITLE12=Children of a lesser god
EXTD=YEAR: 1999
EXTT0=
EXTT1=
EXTT2=
EXTT3=
EXTT4=
EXTT5=
EXTT6=
EXTT7=
EXTT8=
EXTT9=
EXTT10=
EXTT11=
EXTT12=
PLAYORDER=
